<?xml version="1.0" encoding="utf-8" standalone="no"?>
<!DOCTYPE svg PUBLIC "-//W3C//DTD SVG 1.1//EN"
  "http://www.w3.org/Graphics/SVG/1.1/DTD/svg11.dtd">
<svg xmlns:xlink="http://www.w3.org/1999/xlink" width="296.39952pt" height="50.179748pt" viewBox="0 0 296.39952 50.179748" xmlns="http://www.w3.org/2000/svg" version="1.1">
 <metadata>
  <rdf:RDF xmlns:dc="http://purl.org/dc/elements/1.1/" xmlns:cc="http://creativecommons.org/ns#" xmlns:rdf="http://www.w3.org/1999/02/22-rdf-syntax-ns#">
   <cc:Work>
    <dc:type rdf:resource="http://purl.org/dc/dcmitype/StillImage"/>
    <dc:date>2025-06-08T15:04:25.705771</dc:date>
    <dc:format>image/svg+xml</dc:format>
    <dc:creator>
     <cc:Agent>
      <dc:title>Matplotlib v3.10.1, https://matplotlib.org/</dc:title>
     </cc:Agent>
    </dc:creator>
   </cc:Work>
  </rdf:RDF>
 </metadata>
 <defs>
  <style type="text/css">*{stroke-linejoin: round; stroke-linecap: butt}</style>
 </defs>
 <g id="figure_1">
  <g id="patch_1">
   <path d="M 0 50.179748 
L 296.39952 50.179748 
L 296.39952 0 
L 0 0 
z
" style="fill: #ffffff"/>
  </g>
  <g id="axes_1">
   <g id="line2d_1">
    <path d="M 24.492377 22.635204 
L 24.488954 22.634787 
" clip-path="url(#pdaf47418ae)" style="fill: none; stroke: #000000; stroke-width: 0.5; stroke-linecap: square"/>
   </g>
   <g id="line2d_2">
    <path d="M 24.229097 22.732541 
L 24.105149 23.166452 
L 23.872745 23.473755 
L 23.546389 24.161167 
L 23.159091 24.965064 
L 22.618423 25.961696 
L 22.019997 27.199894 
L 21.343442 28.643767 
L 20.721349 30.416144 
L 20.237005 32.038257 
L 20.077494 33.590244 
L 20.01816 34.401503 
L 20.500103 35.402501 
L 21.000989 35.837643 
L 21.749291 35.980267 
L 22.691397 35.470438 
L 23.682561 34.604169 
L 24.703973 33.508021 
L 25.529282 32.217624 
L 26.166694 30.992101 
L 26.392376 29.447244 
L 26.456829 28.452508 
L 26.133972 27.650274 
L 25.600512 27.076864 
L 24.858777 26.8324 
L 24.103052 26.800311 
L 23.589055 26.70225 
L 23.439965 26.688601 
L 23.42858 26.715047 
L 23.462971 26.712592 
L 23.862938 26.682241 
L 24.49198 26.567628 
L 25.362372 26.047688 
L 26.349746 25.205861 
L 27.305748 24.191711 
L 28.347991 23.152156 
L 29.059637 21.768078 
L 29.615982 20.48371 
L 30.047295 19.294673 
L 30.315137 18.084028 
L 30.314035 17.096089 
L 30.167974 16.622044 
L 29.991886 16.477966 
L 29.783039 16.499896 
L 29.427626 17.013438 
L 28.994015 17.998378 
L 28.786879 19.802043 
L 28.401067 21.715015 
L 28.026731 24.083297 
L 27.788321 26.780515 
L 27.587599 29.533222 
L 27.484423 32.261814 
L 27.575194 34.928827 
L 27.56193 36.910981 
L 27.615085 38.644585 
L 27.653889 39.692787 
" clip-path="url(#pdaf47418ae)" style="fill: none; stroke: #000000; stroke-width: 0.5; stroke-linecap: square"/>
   </g>
   <g id="line2d_3">
    <path d="M 28.863436 31.321809 
L 28.928072 31.439087 
L 29.094937 31.45299 
L 29.424478 31.424935 
L 29.989618 31.532302 
L 30.543849 31.277511 
L 31.292365 30.974682 
L 31.984584 30.374157 
L 32.773143 29.674039 
L 33.459571 28.843411 
L 34.070487 27.959842 
L 34.542891 26.989928 
L 34.881845 26.441451 
L 34.940328 25.795883 
L 34.78227 25.298213 
L 34.615743 25.225657 
L 34.311073 25.488686 
L 33.733324 25.856926 
L 33.159296 26.67128 
L 32.561456 27.798614 
L 31.844075 29.050665 
L 31.332392 30.66319 
L 31.0275 31.892125 
L 31.111207 33.075508 
L 31.282918 33.531162 
L 31.831555 34.115847 
L 32.526504 34.13538 
L 33.392964 33.858271 
L 34.428045 33.232377 
L 35.491882 32.344857 
L 36.620115 31.412246 
L 37.689402 30.694918 
L 38.514035 29.723695 
L 39.340509 29.165448 
L 40.053034 28.480504 
L 40.691407 27.825546 
L 41.110911 26.977343 
L 41.441024 26.512034 
L 41.76663 26.062826 
L 41.924294 25.701554 
L 42.160562 25.844507 
L 42.191443 25.691838 
L 42.300631 25.863193 
L 42.428565 26.453397 
L 42.429101 27.016901 
L 42.328379 28.069023 
L 42.101348 29.019836 
L 41.844843 30.434406 
L 41.682168 31.801422 
L 41.307864 33.015087 
L 41.321887 34.656575 
L 41.142741 35.999454 
L 40.966272 37.135344 
L 40.949584 38.200258 
L 40.939912 38.728041 
L 40.988956 38.907018 
L 41.180007 39.072632 
L 41.358072 39.052194 
L 41.427476 38.853854 
L 41.474729 38.257161 
L 41.603534 37.440207 
L 41.703718 36.357535 
L 41.772697 35.043916 
L 41.761021 33.48746 
L 41.848085 32.042618 
L 41.940423 30.530822 
L 42.020635 28.869145 
L 42.128563 27.251727 
L 42.385294 25.96212 
L 42.712146 24.69199 
L 43.216387 23.803628 
L 43.860291 23.525684 
L 44.287062 23.22685 
L 44.692753 23.200381 
L 45.19732 23.531138 
L 45.718365 24.173927 
L 46.236123 24.995125 
L 46.582258 25.876624 
L 46.743744 26.713533 
L 46.815907 27.636889 
L 46.667844 28.575726 
L 46.399155 29.251794 
L 46.051336 29.975415 
L 45.554729 30.669244 
L 45.127315 31.22391 
L 44.646847 31.376311 
L 44.363195 31.549361 
L 44.253613 31.56607 
L 44.142633 31.125354 
" clip-path="url(#pdaf47418ae)" style="fill: none; stroke: #000000; stroke-width: 0.5; stroke-linecap: square"/>
   </g>
   <g id="line2d_4">
    <path d="M 41.862311 18.380038 
" clip-path="url(#pdaf47418ae)" style="fill: none; stroke: #000000; stroke-width: 0.5; stroke-linecap: square"/>
   </g>
   <g id="line2d_5">
    <path d="M 50.100523 31.17997 
L 50.297868 31.221096 
L 50.469735 30.750971 
L 50.758248 30.331298 
L 50.969879 29.675511 
L 51.172098 29.216763 
L 51.256224 28.610916 
L 51.238919 27.970422 
L 51.104102 27.553899 
L 50.85983 27.201626 
L 50.655412 27.067926 
L 50.396275 26.987536 
L 50.12767 27.153515 
L 49.882119 27.778465 
L 49.592525 28.397143 
L 49.461079 29.360653 
L 49.453234 30.285034 
L 49.507236 30.975194 
L 49.787321 31.596623 
L 50.249475 31.85497 
L 50.853978 31.716449 
L 51.632786 31.377054 
L 52.442948 30.805275 
L 53.32457 30.297236 
L 54.280575 29.681556 
L 55.022851 28.868805 
L 55.811706 28.177923 
L 56.60312 27.783331 
L 57.211236 27.413273 
L 57.590653 27.06065 
L 57.8158 26.826001 
L 57.979622 26.96941 
L 57.899287 26.962908 
L 57.784359 26.934212 
L 57.52502 27.119028 
L 57.117821 27.244439 
L 56.631547 27.454122 
L 56.149823 27.965545 
L 55.475072 28.365135 
L 54.935671 28.972358 
L 54.44246 29.593551 
L 54.218559 30.456097 
L 54.087777 31.012093 
L 54.199833 31.559265 
L 54.467078 31.679589 
L 54.832635 31.643982 
L 55.330699 31.303606 
L 55.890824 30.738188 
L 56.390249 30.027155 
L 57.070929 29.58978 
L 57.391013 28.781857 
L 57.688596 27.917413 
L 58.1375 27.415126 
L 58.328323 26.966593 
L 58.359365 26.592384 
L 58.57459 26.830788 
L 58.732279 27.042858 
L 58.947623 27.449317 
L 59.150914 27.907637 
L 59.034486 28.126833 
L 59.069725 28.89421 
L 59.130736 29.701111 
L 59.254528 30.87152 
L 59.171793 32.046873 
L 59.203087 33.604079 
L 59.106356 35.08998 
L 58.965635 36.675846 
L 58.686263 38.103526 
L 58.297547 39.537555 
L 57.705791 40.627679 
L 57.038624 41.436921 
L 56.475785 42.191368 
L 55.754473 42.50766 
L 55.034686 42.482851 
L 54.618035 42.516085 
L 54.290457 42.013397 
L 54.187095 41.147562 
L 54.478831 40.355655 
L 55.009157 39.08033 
L 55.66296 37.748407 
L 56.495479 36.211518 
" clip-path="url(#pdaf47418ae)" style="fill: none; stroke: #000000; stroke-width: 0.5; stroke-linecap: square"/>
   </g>
   <g id="line2d_6">
    <path d="M 64.212791 25.614008 
L 64.851596 25.127731 
L 65.202139 24.815387 
L 65.322667 24.788113 
L 65.21941 24.660049 
L 65.099515 24.681078 
L 64.696921 24.537195 
L 64.266668 24.43666 
L 63.88943 24.416917 
L 63.642121 24.591076 
L 63.370195 24.763211 
L 63.316527 25.169809 
L 63.109795 25.337137 
L 63.010836 25.604713 
L 63.094224 26.020325 
L 63.443488 26.672041 
L 63.680654 27.215347 
L 64.05755 27.654648 
L 64.732765 28.462897 
L 65.111534 28.722586 
L 65.643462 29.330327 
L 65.839528 29.746443 
L 66.146693 30.387108 
L 66.066025 30.820107 
L 65.554088 31.027195 
L 64.953367 31.456361 
L 64.272003 32.111587 
L 63.359789 32.284004 
L 62.420201 32.319827 
" clip-path="url(#pdaf47418ae)" style="fill: none; stroke: #000000; stroke-width: 0.5; stroke-linecap: square"/>
   </g>
   <g id="line2d_7">
    <path d="M 68.487121 39.189751 
L 68.904251 38.47841 
L 69.41248 37.820054 
L 69.911127 36.792875 
L 70.397444 35.713577 
L 71.036939 34.678 
L 71.43884 33.213715 
L 71.971673 31.874761 
L 72.541228 30.510537 
L 72.981849 28.945217 
L 73.784339 28.362237 
L 74.090922 27.402655 
L 74.275555 26.980751 
L 74.357664 26.946247 
L 74.171208 26.851281 
L 74.203583 27.536126 
L 73.985499 28.612601 
L 73.738652 29.710533 
L 73.642218 31.162019 
L 73.580094 32.412492 
L 73.545088 33.539117 
L 73.734413 34.270111 
L 74.049559 34.742225 
L 74.380626 34.741178 
L 75.04323 34.70199 
L 75.573335 33.917748 
L 76.161393 32.917322 
L 76.784892 31.73803 
L 77.274342 30.481051 
L 77.639714 29.082522 
L 77.958273 28.164569 
L 78.103428 27.484745 
L 78.244434 27.434533 
L 78.11618 27.303193 
L 78.168817 27.493217 
L 78.231835 28.220867 
L 78.180754 29.273734 
L 78.174132 30.335903 
L 78.306405 31.598845 
L 78.399556 32.529282 
L 78.782169 33.323142 
L 79.284302 33.812834 
L 80.017996 34.149794 
L 80.768256 34.067499 
L 81.599702 33.661626 
L 82.305231 32.941382 
L 83.033621 31.992999 
L 83.602978 30.870544 
L 84.163471 29.604191 
L 84.538856 28.551996 
L 84.532313 27.602369 
L 84.362214 26.802526 
L 84.077366 26.414398 
L 83.696022 26.248766 
L 83.29395 26.430352 
L 82.72649 26.768959 
L 82.253335 27.605588 
L 81.89124 28.636235 
L 81.63202 29.617931 
L 81.8276 30.785867 
L 82.145077 31.6317 
L 82.808304 32.264712 
L 83.847742 32.806677 
L 84.998008 32.828177 
L 86.026341 32.342045 
" clip-path="url(#pdaf47418ae)" style="fill: none; stroke: #000000; stroke-width: 0.5; stroke-linecap: square"/>
   </g>
   <g id="line2d_8">
    <path d="M 76.302003 22.140571 
L 76.093094 22.042525 
L 76.043954 22.061303 
L 75.987038 21.909694 
L 76.183647 22.036216 
L 76.46493 22.150446 
L 76.610407 22.080663 
L 76.88989 22.093088 
L 76.908568 21.90351 
L 77.113962 21.978119 
L 77.141203 21.765457 
L 77.188622 21.712236 
L 77.340382 21.857712 
" clip-path="url(#pdaf47418ae)" style="fill: none; stroke: #000000; stroke-width: 0.5; stroke-linecap: square"/>
   </g>
   <g id="line2d_9">
    <path d="M 95.791051 38.481803 
L 95.809661 38.421623 
L 96.097079 38.73825 
L 96.141815 38.665769 
L 96.41257 38.662374 
L 96.337525 38.346284 
L 96.27565 38.160185 
L 96.236529 37.966813 
L 95.891685 37.313239 
L 95.720732 36.744426 
L 95.682024 36.266334 
L 95.584695 35.640145 
L 95.431265 34.786887 
" clip-path="url(#pdaf47418ae)" style="fill: none; stroke: #000000; stroke-width: 0.5; stroke-linecap: square"/>
   </g>
   <g id="line2d_10">
    <path d="M 95.329285 28.065756 
L 95.335709 27.821782 
L 95.311682 27.322136 
L 95.434616 26.915614 
L 95.696643 26.420723 
L 96.111897 26.202078 
L 96.405156 25.999728 
L 96.647577 26.054252 
L 96.940943 26.465678 
L 97.083195 26.957023 
L 97.384191 27.994101 
L 97.593388 29.027141 
L 97.745165 30.173377 
L 97.953983 31.333983 
L 97.970465 32.34473 
L 98.021846 33.211897 
L 98.128066 33.855846 
L 98.149025 34.100211 
L 98.158726 34.130248 
L 97.774874 33.706057 
L 97.841831 33.227772 
" clip-path="url(#pdaf47418ae)" style="fill: none; stroke: #000000; stroke-width: 0.5; stroke-linecap: square"/>
   </g>
   <g id="line2d_11">
    <path d="M 96.809236 27.951069 
L 96.935906 27.842022 
L 96.853384 27.734228 
L 97.095001 27.786979 
L 97.585792 28.038501 
L 97.836873 28.084759 
L 98.558664 28.407109 
L 99.175247 28.513646 
L 99.944802 28.557453 
L 101.020735 28.79906 
L 101.949612 28.744729 
L 102.72486 28.628708 
L 103.892909 28.730003 
L 104.453187 28.372047 
L 105.058954 28.183615 
L 105.480037 28.119644 
L 105.557788 28.030543 
L 105.438527 28.049769 
L 104.981238 28.069487 
L 104.329121 28.278237 
L 103.745767 28.873754 
L 103.068317 29.507037 
L 102.6969 30.527981 
L 102.418838 31.450958 
L 102.522879 32.3411 
L 102.870287 32.985576 
L 103.51101 33.4077 
L 104.572567 33.788277 
L 105.570885 33.735651 
L 106.759944 33.606599 
L 107.564064 33.062675 
L 108.398006 32.700261 
L 108.716016 31.84993 
L 108.930234 31.069293 
L 109.053355 30.273251 
L 108.87115 29.484731 
L 108.289505 28.598816 
L 107.484264 28.11601 
L 106.572996 27.807273 
L 105.546491 27.691411 
L 104.794114 27.526614 
L 104.407534 27.47912 
L 104.428889 27.4375 
L 104.547278 27.384007 
L 105.21758 27.401697 
L 106.206028 27.329139 
L 107.237734 27.030729 
L 108.869967 27.029774 
L 110.178863 26.571422 
L 111.662471 26.350399 
L 112.921232 26.198931 
L 113.694919 25.96656 
L 113.961219 26.019782 
L 114.023903 26.195472 
L 113.715544 26.779747 
L 113.02893 27.624757 
L 112.42571 28.579029 
L 111.983951 29.651242 
L 111.628359 30.440239 
L 111.925795 31.253728 
L 112.192322 31.541955 
L 112.809301 31.729866 
L 113.442774 31.483487 
L 114.444018 31.299982 
L 115.378623 30.589624 
L 116.28572 30.040254 
L 116.823732 29.175147 
L 117.127031 28.357367 
L 117.345398 27.692443 
L 117.460368 27.278809 
L 117.620132 27.067257 
L 117.569311 26.833023 
L 118.041056 27.023272 
L 118.697882 27.330092 
L 119.376906 27.791781 
L 120.091293 28.389876 
L 121.097235 29.169855 
L 121.682463 29.840696 
L 122.220259 30.67945 
L 122.238654 31.338688 
L 121.992073 31.939291 
L 121.560932 32.540712 
L 120.943013 32.962969 
L 120.029837 33.06416 
L 119.374902 33.137436 
L 118.692114 33.005326 
L 118.770652 33.144407 
L 118.640665 32.98755 
" clip-path="url(#pdaf47418ae)" style="fill: none; stroke: #000000; stroke-width: 0.5; stroke-linecap: square"/>
   </g>
   <g id="line2d_12">
    <path d="M 133.345519 25.946684 
L 133.52151 26.227599 
L 133.546787 26.681779 
L 133.759058 27.497703 
L 133.994308 28.468846 
L 134.262069 29.537271 
L 134.764072 30.988166 
L 135.361106 32.417149 
L 135.861502 33.788703 
L 136.227972 34.969902 
L 136.766403 36.24845 
L 136.948291 37.39321 
L 136.889303 38.200186 
L 136.714569 38.784568 
L 136.487628 39.000709 
L 136.293537 38.906722 
L 135.909973 38.557785 
L 135.457698 37.735691 
L 134.879682 36.524957 
L 134.519732 35.119582 
L 134.317944 33.442277 
L 134.469641 31.734901 
L 134.545779 29.94439 
L 134.5656 28.114672 
L 134.932897 26.625244 
L 135.312193 25.391333 
L 135.903782 24.541723 
L 136.576138 24.01118 
L 137.402026 23.834435 
L 138.412123 24.074992 
L 139.308772 24.639631 
L 140.30816 25.483463 
L 140.997179 26.457708 
L 141.472456 27.489434 
L 141.593998 28.481937 
L 141.376815 29.44495 
L 140.5724 30.224277 
L 139.790762 31.05472 
L 138.653667 31.440333 
L 137.659022 31.540354 
L 137.183711 31.509347 
L 136.555604 31.000389 
L 136.563788 30.581923 
L 136.687899 29.817265 
L 137.344419 29.042961 
" clip-path="url(#pdaf47418ae)" style="fill: none; stroke: #000000; stroke-width: 0.5; stroke-linecap: square"/>
   </g>
   <g id="line2d_13">
    <path d="M 143.597902 23.092133 
L 143.511181 23.030788 
L 143.543374 23.042721 
L 143.675579 23.035283 
L 143.554479 23.172916 
L 143.692797 23.645463 
L 143.611441 24.132533 
L 143.660762 24.909371 
L 143.771006 25.784036 
L 143.766693 26.686218 
L 143.816308 27.425749 
L 144.083311 28.315482 
L 144.41332 28.872579 
L 144.808293 29.385857 
L 145.448501 29.618814 
L 146.022046 29.671621 
L 146.784803 29.668122 
" clip-path="url(#pdaf47418ae)" style="fill: none; stroke: #000000; stroke-width: 0.5; stroke-linecap: square"/>
   </g>
   <g id="line2d_14">
    <path d="M 146.894652 25.068147 
L 146.740905 25.053355 
L 146.547697 25.004996 
L 146.513217 25.032266 
L 146.518752 25.068059 
L 146.972691 25.514783 
L 147.32251 25.785257 
L 147.676732 25.993579 
L 148.290904 26.210677 
L 149.054272 26.543513 
L 149.70391 26.795217 
L 150.345035 27.141903 
L 150.740767 27.322608 
L 150.645284 27.540215 
L 150.550842 27.859582 
L 149.968195 28.139624 
L 149.36017 28.546272 
L 148.650175 28.957683 
L 148.055541 29.247438 
L 147.771038 29.362656 
L 147.68298 29.195581 
L 147.903798 28.904889 
L 148.373392 28.422688 
L 148.899145 27.675317 
L 149.852665 26.922417 
" clip-path="url(#pdaf47418ae)" style="fill: none; stroke: #000000; stroke-width: 0.5; stroke-linecap: square"/>
   </g>
   <g id="line2d_15">
    <path d="M 154.203941 22.925199 
L 154.170944 23.048917 
L 154.096165 23.325077 
L 154.14355 23.861731 
L 154.342746 24.534292 
L 154.393425 25.319741 
L 154.325438 25.955514 
L 154.295168 26.634524 
L 154.196606 27.019972 
L 154.299153 27.415702 
" clip-path="url(#pdaf47418ae)" style="fill: none; stroke: #000000; stroke-width: 0.5; stroke-linecap: square"/>
   </g>
   <g id="line2d_16">
    <path d="M 154.288501 19.857431 
L 154.227226 19.203122 
L 154.122948 18.661832 
L 154.076536 18.281015 
L 154.334381 18.285284 
" clip-path="url(#pdaf47418ae)" style="fill: none; stroke: #000000; stroke-width: 0.5; stroke-linecap: square"/>
   </g>
   <g id="line2d_17">
    <path d="M 158.17093 21.757968 
L 158.903113 20.643503 
L 159.364862 19.332981 
L 159.784525 17.894894 
L 160.152874 16.355765 
L 160.499625 15.15658 
L 160.325219 13.775333 
L 160.420873 12.684639 
L 160.410447 11.827311 
L 160.402931 11.168807 
L 160.385158 10.910442 
L 160.342267 10.872792 
L 160.387377 11.093509 
L 160.367918 11.630138 
L 160.344792 12.502331 
L 160.431366 13.705069 
L 160.4091 15.064032 
L 160.609768 16.593067 
L 160.64701 18.108903 
L 160.801244 19.719345 
L 160.664273 21.233031 
L 160.763933 22.697891 
L 160.955873 23.937906 
L 160.777234 24.814365 
L 160.848833 25.719145 
L 160.70713 26.231564 
L 160.649693 26.617075 
L 160.732532 26.955423 
L 160.59469 27.10728 
" clip-path="url(#pdaf47418ae)" style="fill: none; stroke: #000000; stroke-width: 0.5; stroke-linecap: square"/>
   </g>
   <g id="line2d_18">
    <path d="M 158.164648 25.192343 
L 158.495302 25.306342 
L 159.05009 25.701762 
L 159.905025 26.051633 
L 160.66296 26.247968 
L 161.328196 26.167515 
L 162.054016 25.793362 
L 162.828444 25.266815 
L 163.552397 24.228246 
L 164.249883 23.369689 
L 164.60389 22.196184 
L 164.974051 21.384454 
L 164.905136 20.445037 
L 165.217463 19.715774 
L 165.293725 19.291209 
L 165.298117 18.957168 
L 165.226111 18.795841 
L 165.685076 18.980157 
L 166.057591 19.220897 
L 166.524243 19.606459 
L 167.169058 20.415515 
L 167.769793 21.37652 
L 168.165356 22.435524 
L 168.569136 23.66675 
L 169.042546 24.963352 
L 169.061246 25.977465 
L 168.786535 26.826854 
L 168.895534 27.357623 
L 168.708167 27.299124 
L 168.781633 27.221088 
L 168.813442 26.755053 
L 169.158857 25.885688 
L 169.190598 24.675597 
L 169.792217 23.608034 
L 169.960442 22.396821 
L 170.666543 21.556963 
L 171.094016 21.004282 
L 171.29328 20.758011 
L 171.684948 20.867873 
L 171.800117 21.260987 
L 172.273606 22.000597 
L 172.462274 22.928483 
L 172.579582 23.910426 
L 172.983454 24.91342 
L 173.333657 25.649157 
L 173.852086 26.183461 
L 174.641682 26.467458 
L 175.450523 26.42821 
L 176.262714 26.038147 
L 177.128188 25.155265 
L 178.107155 24.149638 
L 178.859701 22.963971 
L 179.344 21.677245 
L 179.683937 20.460458 
L 179.700781 19.461876 
L 179.828062 18.712127 
L 179.560618 18.208329 
L 179.123251 17.92422 
L 178.756509 17.841083 
L 178.617071 18.027596 
L 178.432194 18.345985 
L 178.789167 19.076791 
L 178.980779 19.771819 
L 179.324077 20.507841 
L 179.836631 21.316208 
L 180.502218 22.205278 
L 181.238509 23.054132 
L 181.738124 23.575831 
L 182.247972 23.858235 
L 182.69993 24.107551 
L 182.977743 24.065341 
L 183.324618 23.855079 
L 183.747473 23.196907 
L 183.912574 22.33074 
L 184.338417 21.433518 
L 184.668663 20.549679 
L 185.112901 19.812345 
L 185.687703 19.246331 
L 186.336163 18.665432 
L 187.019353 18.277409 
L 187.849599 18.277479 
L 188.443452 18.501998 
L 188.976064 18.91301 
L 189.301364 19.577627 
L 189.309288 20.207476 
L 189.280751 20.911406 
L 189.087973 21.48086 
L 188.939693 21.985686 
" clip-path="url(#pdaf47418ae)" style="fill: none; stroke: #000000; stroke-width: 0.5; stroke-linecap: square"/>
   </g>
   <g id="line2d_19">
    <path d="M 170.766611 12.515977 
L 170.829164 12.449358 
L 170.741922 12.322304 
L 170.807317 12.298362 
L 170.774161 12.364564 
" clip-path="url(#pdaf47418ae)" style="fill: none; stroke: #000000; stroke-width: 0.5; stroke-linecap: square"/>
   </g>
   <g id="line2d_20">
    <path d="M 201.958919 18.960095 
L 202.03191 19.025842 
L 201.984049 19.03079 
L 201.981615 19.48572 
L 201.762111 20.536263 
L 201.353497 21.949133 
L 201.062247 23.517939 
L 200.768745 25.170136 
L 200.262452 26.639131 
L 199.972323 28.014444 
L 199.771632 29.190857 
L 199.669131 29.981639 
L 199.659735 30.339401 
" clip-path="url(#pdaf47418ae)" style="fill: none; stroke: #000000; stroke-width: 0.5; stroke-linecap: square"/>
   </g>
   <g id="line2d_21">
    <path d="M 198.395982 17.673964 
L 198.465781 17.311599 
L 198.444907 16.702548 
L 198.862271 16.234976 
L 199.736903 15.852184 
L 200.471055 15.53353 
L 201.193321 15.327868 
L 202.327744 15.461211 
L 203.083766 15.789338 
L 203.648492 16.256384 
L 204.261533 16.987201 
L 204.489957 17.780579 
L 204.530493 18.653057 
L 204.461453 19.348271 
L 203.974154 19.93796 
L 203.737535 20.550386 
L 203.248787 20.845741 
L 203.087478 21.104155 
L 203.030539 21.182001 
L 203.094882 21.024435 
L 203.645889 20.856781 
L 203.97755 20.278985 
L 205.089662 19.938409 
L 205.905962 19.55112 
L 207.02473 19.175835 
L 207.873575 18.807971 
L 208.708395 18.668299 
L 209.34781 18.706364 
L 210.134996 18.964079 
L 210.491572 19.357216 
L 210.839704 19.869948 
L 210.782211 20.551186 
L 210.790497 21.453821 
L 210.627241 22.386341 
L 210.509061 23.238143 
L 210.507771 24.039499 
L 210.438176 24.54378 
" clip-path="url(#pdaf47418ae)" style="fill: none; stroke: #000000; stroke-width: 0.5; stroke-linecap: square"/>
   </g>
   <g id="line2d_22">
    <path d="M 213.210656 22.042221 
L 214.104577 21.479247 
L 214.826265 20.815811 
L 215.451146 19.907099 
L 216.27211 19.127057 
L 216.735275 17.997908 
L 217.158367 17.017829 
L 217.148451 15.834654 
L 217.677747 15.00459 
L 217.675641 14.133982 
L 217.526219 13.427145 
L 217.108333 12.801212 
L 216.940414 12.415193 
L 216.309058 12.199323 
L 215.720062 12.255332 
L 215.275484 12.702545 
L 214.550739 13.27767 
L 214.118795 14.089135 
L 213.46635 15.019927 
L 213.060068 16.145453 
L 212.785843 17.313387 
L 212.653185 18.471077 
L 212.958041 19.58225 
L 213.169803 20.497658 
L 213.892861 21.412053 
L 214.471907 21.920149 
L 215.049358 22.215137 
L 216.058006 22.389893 
L 216.87057 22.243683 
L 217.81877 21.941887 
L 218.865158 21.532431 
L 219.378153 20.963242 
L 219.867626 20.231426 
L 220.268644 19.50288 
L 220.47933 18.867546 
L 220.681435 18.40483 
L 220.722844 18.029074 
L 220.609464 17.740157 
L 220.818202 17.785698 
L 220.989223 17.900836 
L 220.661195 18.06502 
L 221.200339 18.931232 
L 220.958569 19.71795 
L 220.940616 20.482579 
L 221.038352 21.39078 
L 221.301086 22.077004 
L 221.285148 22.583484 
L 221.389721 22.728253 
L 221.533507 22.811314 
L 221.681254 22.635727 
L 221.73937 22.06421 
L 221.964183 21.225315 
L 222.000905 20.122712 
L 222.29289 19.095871 
L 222.551256 18.235144 
L 222.84872 17.472016 
L 223.062394 17.060323 
L 223.352455 16.793384 
L 223.432011 16.654351 
L 223.931219 16.857342 
L 224.003756 17.002107 
L 224.315823 17.560202 
L 224.741338 18.123934 
L 225.096489 18.544943 
L 225.256574 18.726401 
L 225.809393 18.815641 
L 226.594156 18.636158 
L 227.188609 18.303176 
L 228.036333 17.815138 
L 228.513783 17.09709 
L 228.994743 16.458796 
L 229.544822 15.923488 
L 229.993588 15.3687 
L 230.617676 15.085401 
L 230.710024 14.784248 
L 230.692976 14.72958 
L 230.581317 14.913068 
L 230.321254 15.280647 
L 230.401195 15.90149 
L 230.287317 16.647087 
L 230.145275 17.754517 
L 229.652293 18.713374 
L 229.813217 19.768388 
L 229.972782 20.654006 
L 230.104161 21.323987 
L 230.489286 21.976946 
L 230.529381 22.285877 
L 230.68752 22.462977 
L 230.835879 22.692903 
" clip-path="url(#pdaf47418ae)" style="fill: none; stroke: #000000; stroke-width: 0.5; stroke-linecap: square"/>
   </g>
   <g id="line2d_23">
    <path d="M 231.655213 22.991696 
L 231.796847 22.548978 
L 232.483942 22.194205 
L 233.098997 21.777879 
L 233.4805 20.946216 
L 234.16429 20.332596 
L 234.595283 19.48273 
L 235.192046 18.704445 
L 235.524149 18.002334 
L 235.574817 17.428904 
L 235.969202 17.077439 
L 235.923016 16.713679 
L 236.118104 16.693075 
L 235.902346 16.735465 
L 235.958923 17.097471 
L 235.941558 17.743572 
L 236.07382 18.770228 
L 236.047988 19.674308 
L 236.07948 20.628525 
L 236.361594 21.596568 
L 236.721024 22.174106 
L 237.147603 22.503193 
L 237.72974 22.527188 
L 238.186316 22.395201 
L 238.759239 21.743534 
L 239.287855 20.963931 
L 239.798948 19.824557 
L 240.205468 18.919875 
L 240.713075 18.123678 
L 240.646876 17.486745 
L 240.976851 17.179208 
L 241.057222 17.052552 
L 241.500713 17.067056 
L 241.615565 17.360551 
L 241.736393 17.819108 
L 241.902977 18.516938 
L 242.295347 19.441235 
L 242.386653 20.243981 
L 242.717647 20.897477 
L 243.276918 21.471973 
L 243.493286 21.627498 
L 243.936619 21.686042 
L 244.205625 21.504878 
L 244.66279 20.999649 
L 245.139742 20.165117 
L 245.460616 19.075641 
L 245.812846 18.103554 
L 246.151763 17.2847 
L 246.191293 16.345167 
L 246.471596 15.664701 
L 246.538021 15.045877 
L 246.490998 14.646741 
L 246.586108 14.403761 
L 246.578433 14.42041 
L 246.582621 14.370536 
L 247.179814 14.626808 
L 247.455521 14.662206 
" clip-path="url(#pdaf47418ae)" style="fill: none; stroke: #000000; stroke-width: 0.5; stroke-linecap: square"/>
   </g>
   <g id="line2d_24">
    <path d="M 249.111531 14.477492 
L 249.304648 14.483634 
L 249.257037 14.524554 
L 249.374107 14.889395 
L 249.528511 15.442785 
L 249.7123 16.056856 
L 249.712051 16.78706 
L 250.044856 17.668895 
L 250.046803 18.65132 
L 250.159323 19.532634 
L 250.260953 20.322875 
L 250.442818 21.054081 
L 250.40415 21.568369 
L 250.472499 21.919988 
L 250.558621 22.078309 
L 250.321492 22.181381 
L 250.416307 21.908781 
L 249.939536 21.479278 
L 249.92156 20.835986 
L 250.077548 19.812824 
L 249.999554 18.754001 
L 249.981465 17.703227 
L 249.948931 16.556788 
L 250.017802 15.659885 
L 250.091358 14.68524 
L 250.435845 13.867597 
L 251.257353 13.311184 
L 251.864461 12.812873 
L 252.639308 12.477786 
L 253.598646 12.310611 
L 254.300933 12.221815 
L 254.55108 12.0148 
L 255.390042 12.164181 
L 255.738559 12.240392 
L 256.282956 12.56485 
L 256.648724 12.845599 
" clip-path="url(#pdaf47418ae)" style="fill: none; stroke: #000000; stroke-width: 0.5; stroke-linecap: square"/>
   </g>
   <g id="line2d_25">
    <path d="M 261.759588 13.529231 
L 261.594363 13.342918 
L 261.584447 13.304079 
L 261.418769 13.282034 
L 261.029704 13.462767 
L 260.429184 14.059475 
L 259.612567 14.824868 
L 259.010371 16.04409 
L 258.262715 17.161787 
L 258.054632 18.037907 
L 257.850987 18.788189 
L 258.227623 19.329209 
L 258.753636 19.666155 
L 259.512884 19.735942 
L 260.3415 19.646746 
L 261.129138 19.121808 
L 261.678153 18.509128 
L 262.632579 17.485716 
L 263.292415 16.363694 
L 263.759701 15.185781 
L 263.837921 13.885939 
L 263.993366 12.699193 
L 264.063096 11.794731 
L 263.833552 10.982503 
L 263.772854 10.419613 
L 263.731242 9.946409 
L 263.609282 9.786041 
L 263.626918 9.685348 
L 263.577948 9.839178 
L 263.644894 10.122251 
L 263.601494 10.824416 
L 263.657889 11.665824 
L 263.764206 12.678633 
L 263.687548 13.791236 
L 263.882272 14.965769 
L 263.964568 16.2744 
L 264.082431 17.429375 
L 264.206927 18.372122 
L 264.860606 19.253137 
L 265.242177 19.776903 
L 266.126623 20.09725 
L 266.66717 20.079217 
L 267.280754 19.836519 
L 267.98784 19.323455 
L 268.632145 18.647965 
L 269.369093 17.889147 
L 269.861395 16.92672 
L 270.479597 15.946858 
L 271.037125 15.11958 
L 271.630197 14.515386 
L 271.979189 14.216097 
L 272.192818 14.255372 
L 272.181204 14.378381 
L 272.63169 14.812693 
L 272.884169 15.433006 
L 272.948647 16.064616 
L 273.143621 16.707757 
L 273.442172 17.353954 
L 273.896326 17.932467 
L 274.172102 18.20029 
L 274.692998 18.485425 
L 274.86746 18.600066 
L 274.910159 18.561991 
L 275.091503 18.548504 
L 275.128451 18.403606 
" clip-path="url(#pdaf47418ae)" style="fill: none; stroke: #000000; stroke-width: 0.5; stroke-linecap: square"/>
   </g>
   <g id="line2d_26">
    <path d="M 258.533486 12.420509 
L 258.430996 12.384964 
L 258.565907 12.528015 
L 258.775959 12.642219 
L 259.258141 12.837469 
L 260.311683 12.849359 
L 260.743017 12.390152 
L 261.603963 12.151407 
L 262.280507 11.517357 
L 263.203554 11.001508 
L 263.911093 10.33971 
L 264.313153 9.831632 
L 265.317839 9.29616 
L 265.54675 8.664923 
L 266.26588 8.221456 
L 266.437331 7.870776 
L 266.511408 7.663663 
" clip-path="url(#pdaf47418ae)" style="fill: none; stroke: #000000; stroke-width: 0.5; stroke-linecap: square"/>
   </g>
   <g id="line2d_27">
    <path d="M 275.810045 19.155271 
L 276.127432 19.220303 
L 276.325915 19.611707 
L 276.38136 20.027792 
L 275.736986 20.696925 
" clip-path="url(#pdaf47418ae)" style="fill: none; stroke: #000000; stroke-width: 0.5; stroke-linecap: square"/>
   </g>
  </g>
 </g>
 <defs>
  <clipPath id="pdaf47418ae">
   <rect x="7.2" y="7.2" width="281.99952" height="35.779748"/>
  </clipPath>
 </defs>
</svg>
