<?xml version="1.0" encoding="utf-8" standalone="no"?>
<!DOCTYPE svg PUBLIC "-//W3C//DTD SVG 1.1//EN"
  "http://www.w3.org/Graphics/SVG/1.1/DTD/svg11.dtd">
<svg xmlns:xlink="http://www.w3.org/1999/xlink" width="296.39952pt" height="203.530018pt" viewBox="0 0 296.39952 203.530018" xmlns="http://www.w3.org/2000/svg" version="1.1">
 <metadata>
  <rdf:RDF xmlns:dc="http://purl.org/dc/elements/1.1/" xmlns:cc="http://creativecommons.org/ns#" xmlns:rdf="http://www.w3.org/1999/02/22-rdf-syntax-ns#">
   <cc:Work>
    <dc:type rdf:resource="http://purl.org/dc/dcmitype/StillImage"/>
    <dc:date>2025-06-08T15:09:22.689947</dc:date>
    <dc:format>image/svg+xml</dc:format>
    <dc:creator>
     <cc:Agent>
      <dc:title>Matplotlib v3.10.1, https://matplotlib.org/</dc:title>
     </cc:Agent>
    </dc:creator>
   </cc:Work>
  </rdf:RDF>
 </metadata>
 <defs>
  <style type="text/css">*{stroke-linejoin: round; stroke-linecap: butt}</style>
 </defs>
 <g id="figure_1">
  <g id="patch_1">
   <path d="M 0 203.530018 
L 296.39952 203.530018 
L 296.39952 0 
L 0 0 
z
" style="fill: #ffffff"/>
  </g>
  <g id="axes_1">
   <g id="line2d_1">
    <path d="M 20.01816 25.898617 
L 20.01816 26.256666 
L 20.376209 27.330813 
L 20.734258 30.553256 
L 22.882553 33.775698 
L 26.821094 45.591319 
L 30.043537 59.555235 
L 35.056225 84.26063 
L 37.920618 102.163088 
L 38.278667 117.917251 
L 38.278667 134.745562 
L 37.562569 142.622643 
L 36.846471 158.018757 
L 36.488421 169.118281 
L 36.130372 172.340724 
L 35.772323 173.056822 
L 35.772323 173.056822 
L 35.772323 173.056822 
L 35.772323 173.056822 
L 35.772323 173.056822 
" clip-path="url(#p0f046d4af2)" style="fill: none; stroke: #000000; stroke-width: 0.5; stroke-linecap: square"/>
   </g>
   <g id="line2d_2">
    <path d="M 37.20452 123.646038 
L 39.352815 122.92994 
L 45.439651 121.139694 
L 54.39088 118.2753 
L 62.62601 115.410907 
L 74.441633 112.904563 
L 75.51578 112.188465 
L 76.231878 112.188465 
" clip-path="url(#p0f046d4af2)" style="fill: none; stroke: #000000; stroke-width: 0.5; stroke-linecap: square"/>
   </g>
   <g id="line2d_3">
    <path d="M 74.083583 54.542555 
L 74.441633 60.271342 
L 76.589928 75.667456 
L 78.022124 101.805039 
L 78.738223 124.362136 
L 78.738223 146.561184 
L 78.738223 170.550478 
L 78.738223 188.452936 
L 78.380173 189.527084 
L 78.380173 189.527084 
L 78.380173 189.527084 
L 78.380173 189.527084 
" clip-path="url(#p0f046d4af2)" style="fill: none; stroke: #000000; stroke-width: 0.5; stroke-linecap: square"/>
   </g>
   <g id="line2d_4">
    <path d="M 91.986042 147.635332 
L 97.356779 145.845086 
L 106.308008 142.980693 
L 116.691434 138.326053 
L 126.000712 132.597267 
L 127.432909 130.448972 
L 128.507056 125.436284 
L 127.432909 120.781645 
L 123.852417 117.201153 
L 120.988024 116.843104 
L 117.407532 118.2753 
L 108.456303 124.362136 
L 105.59191 129.374824 
L 100.579221 143.338742 
L 95.566533 163.031446 
L 93.776287 174.489019 
L 95.566533 181.650002 
L 98.788976 183.440248 
L 107.024106 184.156346 
L 115.617286 182.3661 
L 127.432909 175.921216 
L 131.0134 172.340724 
" clip-path="url(#p0f046d4af2)" style="fill: none; stroke: #000000; stroke-width: 0.5; stroke-linecap: square"/>
   </g>
   <g id="line2d_5">
    <path d="M 165.38612 79.247942 
L 165.38612 82.470384 
L 165.38612 95.002105 
L 165.744169 116.843104 
L 165.744169 136.177759 
L 165.744169 160.883151 
L 165.744169 168.044134 
L 164.670021 177.353412 
L 164.670021 177.711461 
L 164.670021 177.711461 
" clip-path="url(#p0f046d4af2)" style="fill: none; stroke: #000000; stroke-width: 0.5; stroke-linecap: square"/>
   </g>
   <g id="line2d_6">
    <path d="M 198.326643 76.741598 
L 200.116888 91.779662 
L 202.623233 108.607973 
L 205.129577 127.942628 
L 208.352019 154.796315 
L 209.784216 171.982675 
L 211.216413 188.094887 
L 211.216413 190.95928 
L 211.574462 191.675379 
L 211.574462 191.675379 
" clip-path="url(#p0f046d4af2)" style="fill: none; stroke: #000000; stroke-width: 0.5; stroke-linecap: square"/>
   </g>
   <g id="line2d_7">
    <path d="M 237.712051 131.523119 
L 234.131559 139.400201 
L 229.834969 153.364118 
L 226.612526 173.772921 
L 225.896428 185.230494 
L 227.686674 192.033428 
L 231.267166 192.749526 
L 236.995952 192.749526 
L 247.737427 189.527084 
L 257.404754 184.872445 
L 269.220377 172.340724 
L 274.591114 160.525102 
L 276.38136 147.635332 
L 273.516967 136.177759 
L 261.701344 129.374824 
L 250.60182 124.362136 
L 240.218395 122.57189 
" clip-path="url(#p0f046d4af2)" style="fill: none; stroke: #000000; stroke-width: 0.5; stroke-linecap: square"/>
   </g>
   <g id="text_1">
    <!-- Hello -->
    <g transform="translate(132.990698 16.318125) scale(0.12 -0.12)">
     <defs>
      <path id="DejaVuSans-48" d="M 628 4666 
L 1259 4666 
L 1259 2753 
L 3553 2753 
L 3553 4666 
L 4184 4666 
L 4184 0 
L 3553 0 
L 3553 2222 
L 1259 2222 
L 1259 0 
L 628 0 
L 628 4666 
z
" transform="scale(0.015625)"/>
      <path id="DejaVuSans-65" d="M 3597 1894 
L 3597 1613 
L 953 1613 
Q 991 1019 1311 708 
Q 1631 397 2203 397 
Q 2534 397 2845 478 
Q 3156 559 3463 722 
L 3463 178 
Q 3153 47 2828 -22 
Q 2503 -91 2169 -91 
Q 1331 -91 842 396 
Q 353 884 353 1716 
Q 353 2575 817 3079 
Q 1281 3584 2069 3584 
Q 2775 3584 3186 3129 
Q 3597 2675 3597 1894 
z
M 3022 2063 
Q 3016 2534 2758 2815 
Q 2500 3097 2075 3097 
Q 1594 3097 1305 2825 
Q 1016 2553 972 2059 
L 3022 2063 
z
" transform="scale(0.015625)"/>
      <path id="DejaVuSans-6c" d="M 603 4863 
L 1178 4863 
L 1178 0 
L 603 0 
L 603 4863 
z
" transform="scale(0.015625)"/>
      <path id="DejaVuSans-6f" d="M 1959 3097 
Q 1497 3097 1228 2736 
Q 959 2375 959 1747 
Q 959 1119 1226 758 
Q 1494 397 1959 397 
Q 2419 397 2687 759 
Q 2956 1122 2956 1747 
Q 2956 2369 2687 2733 
Q 2419 3097 1959 3097 
z
M 1959 3584 
Q 2709 3584 3137 3096 
Q 3566 2609 3566 1747 
Q 3566 888 3137 398 
Q 2709 -91 1959 -91 
Q 1206 -91 779 398 
Q 353 888 353 1747 
Q 353 2609 779 3096 
Q 1206 3584 1959 3584 
z
" transform="scale(0.015625)"/>
     </defs>
     <use xlink:href="#DejaVuSans-48"/>
     <use xlink:href="#DejaVuSans-65" transform="translate(75.195312 0)"/>
     <use xlink:href="#DejaVuSans-6c" transform="translate(136.71875 0)"/>
     <use xlink:href="#DejaVuSans-6c" transform="translate(164.501953 0)"/>
     <use xlink:href="#DejaVuSans-6f" transform="translate(192.285156 0)"/>
    </g>
   </g>
  </g>
 </g>
 <defs>
  <clipPath id="p0f046d4af2">
   <rect x="7.2" y="22.318125" width="281.99952" height="174.011893"/>
  </clipPath>
 </defs>
</svg>
