<?xml version="1.0" encoding="utf-8" standalone="no"?>
<!DOCTYPE svg PUBLIC "-//W3C//DTD SVG 1.1//EN"
  "http://www.w3.org/Graphics/SVG/1.1/DTD/svg11.dtd">
<svg xmlns:xlink="http://www.w3.org/1999/xlink" width="296.39952pt" height="139.633284pt" viewBox="0 0 296.39952 139.633284" xmlns="http://www.w3.org/2000/svg" version="1.1">
 <metadata>
  <rdf:RDF xmlns:dc="http://purl.org/dc/elements/1.1/" xmlns:cc="http://creativecommons.org/ns#" xmlns:rdf="http://www.w3.org/1999/02/22-rdf-syntax-ns#">
   <cc:Work>
    <dc:type rdf:resource="http://purl.org/dc/dcmitype/StillImage"/>
    <dc:date>2025-06-08T15:09:25.314065</dc:date>
    <dc:format>image/svg+xml</dc:format>
    <dc:creator>
     <cc:Agent>
      <dc:title>Matplotlib v3.10.1, https://matplotlib.org/</dc:title>
     </cc:Agent>
    </dc:creator>
   </cc:Work>
  </rdf:RDF>
 </metadata>
 <defs>
  <style type="text/css">*{stroke-linejoin: round; stroke-linecap: butt}</style>
 </defs>
 <g id="figure_1">
  <g id="patch_1">
   <path d="M 0 139.633284 
L 296.39952 139.633284 
L 296.39952 0 
L 0 0 
z
" style="fill: #ffffff"/>
  </g>
  <g id="axes_1">
   <g id="line2d_1">
    <path d="M 20.01816 26.805362 
L 24.128401 33.179067 
L 27.460223 37.270087 
L 29.937794 41.100605 
L 31.798084 46.319387 
L 33.049953 53.548545 
L 32.756786 59.934634 
L 32.455008 68.443962 
L 33.505594 76.585018 
L 36.076867 83.66268 
L 38.004427 90.032361 
L 39.750458 96.709706 
L 42.128205 100.579637 
L 43.865098 101.400641 
L 45.91566 102.908173 
L 46.414599 101.04348 
L 47.669414 94.18272 
L 48.8386 86.625535 
L 48.613469 75.407484 
L 50.408033 64.01604 
L 52.502213 54.697654 
L 55.685918 47.664073 
L 57.423545 38.972051 
L 59.702171 34.936176 
L 60.167376 33.702404 
L 60.286222 33.708974 
L 60.129328 33.920322 
L 60.285858 33.967419 
L 60.273275 34.403944 
L 60.025649 35.80841 
L 59.90869 37.231015 
L 60.166162 38.716565 
L 60.560128 40.974858 
L 61.466233 43.562672 
L 62.29463 46.19003 
L 62.563841 48.462315 
L 62.256243 53.376512 
L 62.357101 58.088348 
L 62.137051 62.668956 
L 62.810734 70.516463 
L 64.548795 79.400921 
L 65.758386 91.57366 
L 65.723606 100.504363 
L 66.007026 109.317257 
L 68.881221 115.011253 
L 71.016921 115.417324 
L 74.538552 117.327845 
L 78.513688 117.803744 
L 83.761393 113.666799 
L 89.973089 106.815025 
L 95.418791 93.350554 
L 101.109772 79.989612 
L 104.883567 66.51855 
L 107.226266 56.687556 
L 108.194995 50.82996 
L 108.683603 49.245915 
L 108.523756 47.711583 
L 108.741196 48.294533 
L 109.76698 48.441337 
L 110.419405 51.332444 
L 111.835419 55.808179 
" clip-path="url(#pa61acbe5b6)" style="fill: none; stroke: #000000; stroke-width: 0.5; stroke-linecap: square"/>
   </g>
   <g id="line2d_2">
    <path d="M 139.777138 73.08195 
L 136.526535 75.491027 
L 133.775506 83.644916 
L 129.565401 93.478657 
L 126.377234 105.554981 
L 125.479407 115.699955 
L 128.489941 122.752075 
L 134.40818 127.634477 
L 141.94613 128.768794 
L 149.148641 127.068297 
L 155.802463 121.748489 
L 162.490986 115.027334 
L 165.249284 106.146916 
L 164.321073 96.734035 
L 161.026777 87.925732 
L 155.85433 80.786456 
L 150.033988 76.437378 
L 143.264141 74.452293 
L 136.844807 75.651818 
L 132.229694 78.115788 
L 130.628448 79.087161 
" clip-path="url(#pa61acbe5b6)" style="fill: none; stroke: #000000; stroke-width: 0.5; stroke-linecap: square"/>
   </g>
   <g id="line2d_3">
    <path d="M 181.450341 81.674067 
L 182.625711 92.664368 
L 182.176093 104.015153 
L 181.875211 112.876464 
L 181.867159 118.32428 
L 181.831899 119.831029 
L 181.529238 120.228187 
L 181.022362 119.047583 
L 180.576301 117.124944 
L 179.218847 109.443124 
L 179.250864 98.53532 
L 182.315703 88.340492 
L 186.96686 81.128894 
L 192.847323 77.016469 
L 198.88104 75.415105 
L 204.982996 73.936392 
L 210.66696 72.475335 
" clip-path="url(#pa61acbe5b6)" style="fill: none; stroke: #000000; stroke-width: 0.5; stroke-linecap: square"/>
   </g>
   <g id="line2d_4">
    <path d="M 221.04905 25.982616 
L 221.105122 26.785879 
L 220.93742 31.658631 
L 219.209155 41.020931 
L 218.164203 55.00708 
L 218.188694 70.094981 
L 218.318396 82.611409 
L 219.797657 93.891063 
L 221.268373 101.29363 
" clip-path="url(#pa61acbe5b6)" style="fill: none; stroke: #000000; stroke-width: 0.5; stroke-linecap: square"/>
   </g>
   <g id="line2d_5">
    <path d="M 269.940074 77.987411 
L 268.541645 75.641127 
L 265.720832 74.833828 
L 260.845476 75.060773 
L 254.076301 78.361364 
L 246.836359 84.732828 
L 241.961607 95.899605 
L 238.403379 108.085082 
L 237.71121 118.609489 
L 239.96497 123.762148 
L 244.939699 126.576384 
L 250.412056 124.892416 
L 257.627439 121.78016 
L 262.93594 112.495041 
L 267.642342 101.68443 
L 271.746016 88.45418 
L 274.9212 72.861494 
L 276.325064 55.793769 
L 276.38136 43.816657 
L 275.520214 36.471051 
L 275.760785 34.006635 
L 275.602454 33.973439 
L 275.947745 35.114375 
L 275.487961 42.247123 
" clip-path="url(#pa61acbe5b6)" style="fill: none; stroke: #000000; stroke-width: 0.5; stroke-linecap: square"/>
   </g>
   <g id="text_1">
    <!-- World -->
    <g transform="translate(131.00601 16.318125) scale(0.12 -0.12)">
     <defs>
      <path id="DejaVuSans-57" d="M 213 4666 
L 850 4666 
L 1831 722 
L 2809 4666 
L 3519 4666 
L 4500 722 
L 5478 4666 
L 6119 4666 
L 4947 0 
L 4153 0 
L 3169 4050 
L 2175 0 
L 1381 0 
L 213 4666 
z
" transform="scale(0.015625)"/>
      <path id="DejaVuSans-6f" d="M 1959 3097 
Q 1497 3097 1228 2736 
Q 959 2375 959 1747 
Q 959 1119 1226 758 
Q 1494 397 1959 397 
Q 2419 397 2687 759 
Q 2956 1122 2956 1747 
Q 2956 2369 2687 2733 
Q 2419 3097 1959 3097 
z
M 1959 3584 
Q 2709 3584 3137 3096 
Q 3566 2609 3566 1747 
Q 3566 888 3137 398 
Q 2709 -91 1959 -91 
Q 1206 -91 779 398 
Q 353 888 353 1747 
Q 353 2609 779 3096 
Q 1206 3584 1959 3584 
z
" transform="scale(0.015625)"/>
      <path id="DejaVuSans-72" d="M 2631 2963 
Q 2534 3019 2420 3045 
Q 2306 3072 2169 3072 
Q 1681 3072 1420 2755 
Q 1159 2438 1159 1844 
L 1159 0 
L 581 0 
L 581 3500 
L 1159 3500 
L 1159 2956 
Q 1341 3275 1631 3429 
Q 1922 3584 2338 3584 
Q 2397 3584 2469 3576 
Q 2541 3569 2628 3553 
L 2631 2963 
z
" transform="scale(0.015625)"/>
      <path id="DejaVuSans-6c" d="M 603 4863 
L 1178 4863 
L 1178 0 
L 603 0 
L 603 4863 
z
" transform="scale(0.015625)"/>
      <path id="DejaVuSans-64" d="M 2906 2969 
L 2906 4863 
L 3481 4863 
L 3481 0 
L 2906 0 
L 2906 525 
Q 2725 213 2448 61 
Q 2172 -91 1784 -91 
Q 1150 -91 751 415 
Q 353 922 353 1747 
Q 353 2572 751 3078 
Q 1150 3584 1784 3584 
Q 2172 3584 2448 3432 
Q 2725 3281 2906 2969 
z
M 947 1747 
Q 947 1113 1208 752 
Q 1469 391 1925 391 
Q 2381 391 2643 752 
Q 2906 1113 2906 1747 
Q 2906 2381 2643 2742 
Q 2381 3103 1925 3103 
Q 1469 3103 1208 2742 
Q 947 2381 947 1747 
z
" transform="scale(0.015625)"/>
     </defs>
     <use xlink:href="#DejaVuSans-57"/>
     <use xlink:href="#DejaVuSans-6f" transform="translate(93.001953 0)"/>
     <use xlink:href="#DejaVuSans-72" transform="translate(154.183594 0)"/>
     <use xlink:href="#DejaVuSans-6c" transform="translate(195.296875 0)"/>
     <use xlink:href="#DejaVuSans-64" transform="translate(223.080078 0)"/>
    </g>
   </g>
  </g>
 </g>
 <defs>
  <clipPath id="pa61acbe5b6">
   <rect x="7.2" y="22.318125" width="281.99952" height="110.115159"/>
  </clipPath>
 </defs>
</svg>
