<?xml version="1.0" encoding="utf-8" standalone="no"?>
<!DOCTYPE svg PUBLIC "-//W3C//DTD SVG 1.1//EN"
  "http://www.w3.org/Graphics/SVG/1.1/DTD/svg11.dtd">
<svg xmlns:xlink="http://www.w3.org/1999/xlink" width="296.39952pt" height="95.349697pt" viewBox="0 0 296.39952 95.349697" xmlns="http://www.w3.org/2000/svg" version="1.1">
 <metadata>
  <rdf:RDF xmlns:dc="http://purl.org/dc/elements/1.1/" xmlns:cc="http://creativecommons.org/ns#" xmlns:rdf="http://www.w3.org/1999/02/22-rdf-syntax-ns#">
   <cc:Work>
    <dc:type rdf:resource="http://purl.org/dc/dcmitype/StillImage"/>
    <dc:date>2025-06-08T15:06:06.961813</dc:date>
    <dc:format>image/svg+xml</dc:format>
    <dc:creator>
     <cc:Agent>
      <dc:title>Matplotlib v3.10.1, https://matplotlib.org/</dc:title>
     </cc:Agent>
    </dc:creator>
   </cc:Work>
  </rdf:RDF>
 </metadata>
 <defs>
  <style type="text/css">*{stroke-linejoin: round; stroke-linecap: butt}</style>
 </defs>
 <g id="figure_1">
  <g id="patch_1">
   <path d="M 0 95.349697 
L 296.39952 95.349697 
L 296.39952 0 
L 0 0 
z
" style="fill: #ffffff"/>
  </g>
  <g id="axes_1">
   <g id="line2d_1">
    <path d="M 37.373081 23.718081 
L 37.364224 23.728904 
L 36.114119 25.848195 
L 34.79868 29.498907 
L 33.455938 34.867114 
L 31.768522 41.415377 
L 29.864337 49.16586 
L 27.539943 57.399142 
L 25.202992 65.850949 
L 23.067361 73.938422 
L 21.268519 80.398609 
L 20.244259 84.908019 
L 20.01816 86.749741 
L 20.535667 86.471959 
" clip-path="url(#p503d177ac6)" style="fill: none; stroke: #000000; stroke-width: 0.5; stroke-linecap: square"/>
   </g>
   <g id="line2d_2">
    <path d="M 54.307714 27.61858 
L 54.504583 26.88857 
L 54.793229 27.428036 
L 54.214985 29.574327 
L 52.501324 33.838779 
L 50.185512 39.973594 
L 47.4844 47.029435 
L 43.879115 54.144153 
L 40.436384 61.66019 
L 37.10451 68.11276 
L 34.68255 73.020957 
L 33.069651 75.621697 
L 32.192981 76.034643 
" clip-path="url(#p503d177ac6)" style="fill: none; stroke: #000000; stroke-width: 0.5; stroke-linecap: square"/>
   </g>
   <g id="line2d_3">
    <path d="M 26.786324 55.332755 
L 26.435675 55.36672 
L 26.812508 55.518328 
L 28.476875 55.360598 
L 31.344522 55.549099 
L 34.626979 55.835922 
L 38.116768 56.240116 
L 41.533864 56.585337 
L 44.540267 56.775442 
" clip-path="url(#p503d177ac6)" style="fill: none; stroke: #000000; stroke-width: 0.5; stroke-linecap: square"/>
   </g>
   <g id="line2d_4">
    <path d="M 46.611145 71.344586 
L 47.215121 71.236727 
L 49.349058 70.360414 
L 52.456039 68.046343 
L 55.82017 64.583781 
L 59.161479 60.480636 
L 62.226215 56.156115 
L 64.482889 52.07648 
L 65.928731 48.494706 
L 66.37605 46.135289 
L 65.566707 44.872992 
L 63.644924 44.87071 
L 60.697181 46.608889 
L 57.440042 49.92507 
L 54.580175 54.99315 
L 52.025876 59.864729 
L 50.796401 65.202606 
L 50.737085 69.758212 
L 51.988145 73.36725 
L 54.361648 75.275002 
L 57.737902 75.780691 
L 61.708026 74.045367 
L 66.261881 70.787958 
L 71.097839 66.254359 
L 75.879599 60.114484 
L 80.372508 53.232125 
L 84.499083 46.1787 
L 88.17659 39.558973 
L 90.801562 33.336531 
L 92.439046 28.500187 
L 93.058234 25.917084 
L 92.569455 24.876869 
L 91.246388 25.232657 
L 88.757626 27.941335 
L 85.305472 32.878592 
L 81.879349 40.02848 
L 78.545192 47.649945 
L 76.059135 55.890381 
L 74.793057 62.995305 
L 75.070758 68.486324 
L 76.295005 71.117141 
L 79.020377 72.428031 
L 82.440856 70.86439 
L 86.654134 67.07491 
L 91.334368 61.305062 
L 95.962561 54.337739 
L 100.390702 47.099606 
L 104.094168 39.718198 
L 107.048673 33.218734 
L 109.098402 28.674573 
L 109.719171 26.087802 
L 109.41857 25.56253 
L 108.567514 26.154119 
L 106.480483 29.54947 
L 103.823875 35.374423 
L 100.54862 42.806019 
L 97.176982 50.994948 
L 94.730871 59.010969 
L 93.692794 65.716968 
L 94.061786 70.265393 
L 95.760775 72.346455 
" clip-path="url(#p503d177ac6)" style="fill: none; stroke: #000000; stroke-width: 0.5; stroke-linecap: square"/>
   </g>
   <g id="line2d_5">
    <path d="M 121.427641 47.597037 
L 120.443203 46.892836 
L 119.015682 47.047255 
L 117.203123 48.358506 
L 114.743716 51.651779 
L 112.432191 56.144445 
L 110.231132 61.594939 
L 108.675826 66.388467 
L 108.447778 70.314076 
L 109.292887 72.168376 
L 111.006363 72.786539 
L 113.249299 72.013496 
L 115.707066 69.568927 
L 117.990128 65.624336 
L 119.865969 60.994639 
L 121.04443 56.46318 
L 121.135345 52.253427 
L 120.888798 49.947382 
L 119.713174 48.733725 
L 118.291062 48.443265 
L 117.394019 49.243952 
" clip-path="url(#p503d177ac6)" style="fill: none; stroke: #000000; stroke-width: 0.5; stroke-linecap: square"/>
   </g>
   <g id="line2d_6">
    <path d="M 164.773671 41.391259 
L 163.267898 41.69674 
L 161.752129 43.479754 
L 159.893582 47.009449 
L 157.007822 50.959812 
L 154.343711 56.632183 
L 151.681805 62.634208 
L 149.547163 68.588462 
L 148.38844 73.47443 
L 148.329756 76.434631 
L 149.516018 78.07936 
L 151.365345 78.059067 
L 154.160061 76.899878 
L 157.348378 74.038006 
L 160.633583 70.472596 
L 163.310553 67.173584 
L 165.122583 64.96964 
L 165.861508 64.398559 
L 165.841325 64.450677 
L 165.676473 65.995054 
L 165.255162 68.937319 
L 165.062993 72.739744 
L 165.271166 76.564565 
L 166.085975 79.58148 
L 167.812303 81.124345 
L 170.173275 81.246704 
L 172.853476 79.124196 
L 175.57029 75.317225 
L 178.845796 70.683628 
L 181.229446 64.48257 
L 183.682086 58.343798 
L 185.520279 52.187219 
L 186.551482 46.593043 
L 186.630007 41.819973 
L 186.070059 38.165695 
L 184.969252 35.756999 
L 183.350929 34.467097 
" clip-path="url(#p503d177ac6)" style="fill: none; stroke: #000000; stroke-width: 0.5; stroke-linecap: square"/>
   </g>
   <g id="line2d_7">
    <path d="M 196.997369 60.514545 
L 196.255368 61.071643 
L 195.115238 61.881142 
L 193.966171 63.875301 
L 192.383821 66.783678 
L 190.501024 70.207862 
L 188.839568 74.222168 
L 187.881987 78.300599 
L 187.872468 81.345575 
L 188.649621 82.705161 
L 190.225716 82.745902 
L 192.479812 81.087283 
L 194.977259 78.069987 
L 197.048004 74.19348 
L 198.454898 70.173371 
L 199.177827 66.24258 
L 198.981095 62.719748 
L 198.273803 60.52265 
L 197.260305 59.319245 
L 196.042316 58.953305 
L 195.024289 59.429579 
L 194.551121 60.685865 
L 194.190758 62.079293 
L 195.241904 63.889947 
L 197.157564 65.032499 
L 199.63987 64.880105 
L 202.912676 64.289632 
L 206.088996 62.453647 
L 209.401792 60.426121 
L 212.362359 58.551016 
L 214.283316 56.698643 
L 215.196312 55.573522 
L 215.458445 55.607818 
L 215.327609 56.296914 
L 214.428507 58.430829 
L 212.904415 62.247904 
L 211.076663 66.568118 
L 209.3051 70.919511 
L 207.737704 75.015351 
L 206.722651 78.179025 
L 206.18726 79.96898 
L 206.041078 80.292045 
L 206.350531 80.177068 
L 206.223096 78.913301 
L 207.308028 76.11216 
L 208.766138 72.223058 
L 211.267345 68.308514 
L 214.254982 64.374839 
L 217.285274 61.062603 
L 220.180988 58.545101 
L 223.097893 57.04255 
L 225.719033 56.01726 
L 227.9201 55.340857 
" clip-path="url(#p503d177ac6)" style="fill: none; stroke: #000000; stroke-width: 0.5; stroke-linecap: square"/>
   </g>
   <g id="line2d_8">
    <path d="M 249.201527 36.286891 
L 248.558149 36.992676 
L 247.727045 39.196317 
L 246.307078 43.052184 
L 244.159585 47.444566 
L 241.409763 52.756934 
L 238.069163 58.863522 
L 235.069666 65.394015 
L 232.380459 71.233284 
L 230.615152 75.712351 
L 230.717807 79.072121 
L 231.62031 80.41237 
L 233.92687 80.604271 
" clip-path="url(#p503d177ac6)" style="fill: none; stroke: #000000; stroke-width: 0.5; stroke-linecap: square"/>
   </g>
   <g id="line2d_9">
    <path d="M 260.51796 64.917898 
L 260.17373 63.968118 
L 259.467891 62.945579 
L 258.651022 62.587503 
L 257.358302 62.38273 
L 255.724838 63.354522 
L 253.588043 65.3653 
L 251.248159 68.517563 
L 248.58703 72.376908 
L 246.710795 76.551816 
L 245.350197 79.905724 
L 245.509947 82.324394 
L 246.403991 83.480494 
L 248.710261 83.461388 
L 251.574274 81.357358 
L 255.277662 77.586428 
L 259.472898 72.577832 
L 263.867172 67.221412 
L 267.721562 61.5241 
L 270.95737 55.966424 
L 273.610227 51.258984 
L 275.356019 47.332828 
L 276.38136 45.205797 
L 276.260846 44.633455 
L 276.197479 45.197629 
L 274.757962 47.301896 
L 272.863271 51.686312 
L 270.582704 57.051748 
L 268.47209 63.399749 
" clip-path="url(#p503d177ac6)" style="fill: none; stroke: #000000; stroke-width: 0.5; stroke-linecap: square"/>
   </g>
   <g id="text_1">
    <!-- Hello World -->
    <g transform="translate(113.890073 16.318125) scale(0.12 -0.12)">
     <defs>
      <path id="DejaVuSans-48" d="M 628 4666 
L 1259 4666 
L 1259 2753 
L 3553 2753 
L 3553 4666 
L 4184 4666 
L 4184 0 
L 3553 0 
L 3553 2222 
L 1259 2222 
L 1259 0 
L 628 0 
L 628 4666 
z
" transform="scale(0.015625)"/>
      <path id="DejaVuSans-65" d="M 3597 1894 
L 3597 1613 
L 953 1613 
Q 991 1019 1311 708 
Q 1631 397 2203 397 
Q 2534 397 2845 478 
Q 3156 559 3463 722 
L 3463 178 
Q 3153 47 2828 -22 
Q 2503 -91 2169 -91 
Q 1331 -91 842 396 
Q 353 884 353 1716 
Q 353 2575 817 3079 
Q 1281 3584 2069 3584 
Q 2775 3584 3186 3129 
Q 3597 2675 3597 1894 
z
M 3022 2063 
Q 3016 2534 2758 2815 
Q 2500 3097 2075 3097 
Q 1594 3097 1305 2825 
Q 1016 2553 972 2059 
L 3022 2063 
z
" transform="scale(0.015625)"/>
      <path id="DejaVuSans-6c" d="M 603 4863 
L 1178 4863 
L 1178 0 
L 603 0 
L 603 4863 
z
" transform="scale(0.015625)"/>
      <path id="DejaVuSans-6f" d="M 1959 3097 
Q 1497 3097 1228 2736 
Q 959 2375 959 1747 
Q 959 1119 1226 758 
Q 1494 397 1959 397 
Q 2419 397 2687 759 
Q 2956 1122 2956 1747 
Q 2956 2369 2687 2733 
Q 2419 3097 1959 3097 
z
M 1959 3584 
Q 2709 3584 3137 3096 
Q 3566 2609 3566 1747 
Q 3566 888 3137 398 
Q 2709 -91 1959 -91 
Q 1206 -91 779 398 
Q 353 888 353 1747 
Q 353 2609 779 3096 
Q 1206 3584 1959 3584 
z
" transform="scale(0.015625)"/>
      <path id="DejaVuSans-20" transform="scale(0.015625)"/>
      <path id="DejaVuSans-57" d="M 213 4666 
L 850 4666 
L 1831 722 
L 2809 4666 
L 3519 4666 
L 4500 722 
L 5478 4666 
L 6119 4666 
L 4947 0 
L 4153 0 
L 3169 4050 
L 2175 0 
L 1381 0 
L 213 4666 
z
" transform="scale(0.015625)"/>
      <path id="DejaVuSans-72" d="M 2631 2963 
Q 2534 3019 2420 3045 
Q 2306 3072 2169 3072 
Q 1681 3072 1420 2755 
Q 1159 2438 1159 1844 
L 1159 0 
L 581 0 
L 581 3500 
L 1159 3500 
L 1159 2956 
Q 1341 3275 1631 3429 
Q 1922 3584 2338 3584 
Q 2397 3584 2469 3576 
Q 2541 3569 2628 3553 
L 2631 2963 
z
" transform="scale(0.015625)"/>
      <path id="DejaVuSans-64" d="M 2906 2969 
L 2906 4863 
L 3481 4863 
L 3481 0 
L 2906 0 
L 2906 525 
Q 2725 213 2448 61 
Q 2172 -91 1784 -91 
Q 1150 -91 751 415 
Q 353 922 353 1747 
Q 353 2572 751 3078 
Q 1150 3584 1784 3584 
Q 2172 3584 2448 3432 
Q 2725 3281 2906 2969 
z
M 947 1747 
Q 947 1113 1208 752 
Q 1469 391 1925 391 
Q 2381 391 2643 752 
Q 2906 1113 2906 1747 
Q 2906 2381 2643 2742 
Q 2381 3103 1925 3103 
Q 1469 3103 1208 2742 
Q 947 2381 947 1747 
z
" transform="scale(0.015625)"/>
     </defs>
     <use xlink:href="#DejaVuSans-48"/>
     <use xlink:href="#DejaVuSans-65" transform="translate(75.195312 0)"/>
     <use xlink:href="#DejaVuSans-6c" transform="translate(136.71875 0)"/>
     <use xlink:href="#DejaVuSans-6c" transform="translate(164.501953 0)"/>
     <use xlink:href="#DejaVuSans-6f" transform="translate(192.285156 0)"/>
     <use xlink:href="#DejaVuSans-20" transform="translate(253.466797 0)"/>
     <use xlink:href="#DejaVuSans-57" transform="translate(285.253906 0)"/>
     <use xlink:href="#DejaVuSans-6f" transform="translate(378.255859 0)"/>
     <use xlink:href="#DejaVuSans-72" transform="translate(439.4375 0)"/>
     <use xlink:href="#DejaVuSans-6c" transform="translate(480.550781 0)"/>
     <use xlink:href="#DejaVuSans-64" transform="translate(508.333984 0)"/>
    </g>
   </g>
  </g>
 </g>
 <defs>
  <clipPath id="p503d177ac6">
   <rect x="7.2" y="22.318125" width="281.99952" height="65.831572"/>
  </clipPath>
 </defs>
</svg>
